<svg id="logo-small" viewBox="0 0 138.62 42.36">
	<path id="Path_666" data-name="Path 666" d="M45.31,18.36a13.45,13.45,0,0,0-1.94,1.06c.08-6.93.68-11.34,2-13.7a3.42,3.42,0,0,1,3.14-2.13c2.26,0,4.21,2,4.21,4.85A3.87,3.87,0,0,1,51,11.93c.13,3.29,2.12,4.86,4.34,4.86s4.57-1.72,4.57-5.47c0-6.62-7.23-8.14-11.13-8.14a15.4,15.4,0,0,0-3.45.39,13.94,13.94,0,0,0-5.92,3,18,18,0,0,0-5.79,10.84,23.38,23.38,0,0,0-.32,3.83c0,10.22,5.9,18.05,14.86,18.05,6.61,0,13.35-4.3,13.35-12,0-8.17-8.79-12.26-16.2-8.95M48.2,38.89c-2.62,0-4.09-3.33-4.6-10.51q-.24-3.09-.23-7.14V19.88a13.6,13.6,0,0,1,1.94-1.07c4.39-1.92,7.28.42,7.28,8.35,0,11.33-2.48,11.74-4.39,11.74" transform="translate(0 0)" style="fill:#1a1818"></path>
	<path id="Path_667" data-name="Path 667" d="M13,27.93,13,13.3h0V3.92c0-1-.61-1.35-1.37-.73L.13,12.5,0,12.59s2.9-2,3,1.65l0,14.63H3v9.39c0,1,.61,1.34,1.37.73l11.53-9.31.13-.09s-2.9,2-3-1.65" transform="translate(0 0)" style="fill:#1a1818"></path>
	<path id="Path_668" data-name="Path 668" d="M29.21,27.93l0-14.63h0V3.92c0-1-.61-1.35-1.37-.73l-11.53,9.3-.13.1s2.9-2,3,1.65l0,14.63h0v9.38c0,1,.61,1.35,1.37.74l11.54-9.31.12-.1s-2.9,2-3-1.65" transform="translate(0 0)" style="fill:#1a1818"></path>
	<path id="Path_669" data-name="Path 669" d="M73.6,22.74l-.24-.51-.2-.43h0l-.34-.72a11.27,11.27,0,0,1-.53-1.24A1.79,1.79,0,0,0,71.54,21c-.25,1.33,1.36,3.19,2.39,2.42Z" transform="translate(0 0)" style="fill:#1a1818"></path>
	<path id="Path_670" data-name="Path 670" d="M74.63,17.74c0-.45-.11-.85-.55-.9-.27,0-.72.1-.75.5a5,5,0,0,0,.46,1.74,1.66,1.66,0,0,0,.84-1.33" transform="translate(0 0)" style="fill:#1a1818"></path>
	<path id="Path_671" data-name="Path 671" d="M74,14.73V.38A.34.34,0,0,0,73.65,0a.36.36,0,0,0-.38.32V14.73a6.19,6.19,0,0,0-5.6,6.36,6.2,6.2,0,0,0,5.6,6.36V42a.35.35,0,0,0,.33.37A.34.34,0,0,0,74,42V27.45a6.2,6.2,0,0,0,5.6-6.36A6.19,6.19,0,0,0,74,14.73m2.14,9.42-1.7,0a.2.2,0,0,1-.18-.12l0-.09s0,0,0,0l-.19-.4a2.29,2.29,0,0,1-2,.63,2.11,2.11,0,0,1-1.56-2.43,1.91,1.91,0,0,1,1.8-2c0-.08-.05-.15-.07-.22v0a3.44,3.44,0,0,1-.13-1.39c.1-1.13,1.11-1.38,2-1.34a1,1,0,0,1,1,1c0,.87-.49,1.12-1.34,1.4a10.78,10.78,0,0,0,.42,1.07l.49,1a1.46,1.46,0,0,1,.51-1.68,1,1,0,0,1,1.34.18l.07.11a1,1,0,0,1-.22,1.35.63.63,0,0,1-.88-.13L75.47,21a.63.63,0,0,0,0-.75c-.13-.23-.32-.31-.53-.17s-.27,1,0,1.64l.56,1.18a.08.08,0,0,1,0,0l.12.24a2.1,2.1,0,0,0,1.16,1Z" transform="translate(0 0)" style="fill:#1a1818"></path>
	<path id="Path_672" data-name="Path 672" d="M138.48,2.77H125l5.8,12.46c.56,1.19,1.46,1.19,2,0l5.8-12.46Z" transform="translate(0 0)" style="fill:#1a1818"></path>
	<path id="Path_673" data-name="Path 673" d="M104.2,21.64,95.42,2.77H81.85L98.52,38.59c.51,1.1,1.34,1.1,1.85,0l7.85-16.88s-2.11,3.85-4-.07" transform="translate(0 0)" style="fill:#1a1818"></path>
	<path id="Path_674" data-name="Path 674" d="M125.79,21.64,117,2.77H103.44l16.67,35.82c.51,1.1,1.33,1.1,1.84,0l7.86-16.88s-2.11,3.84-4-.08" transform="translate(0 0)" style="fill:#1a1818"></path>
</svg>